<svg width="402" height="225" viewBox="0 0 402 225" fill="none" xmlns="http://www.w3.org/2000/svg">
<g clip-path="url(#clip0_575_940)">
<mask id="path-1-inside-1_575_940" fill="white">
<path d="M0 0H402V225H0V0Z"/>
</mask>
<path d="M0 0H402V225H0V0Z" fill="url(#paint0_linear_575_940)"/>
<path d="M49.5107 90.1328L48.168 94H44.999L50.5205 78.8643H54.2588L59.7588 94H56.6221L55.2793 90.1328H49.5107ZM52.3896 81.1953C52.318 81.4818 52.2178 81.8255 52.0889 82.2266C51.96 82.6276 51.8669 82.9105 51.8096 83.0752L50.2197 87.748H54.5703L52.9375 82.9785C52.8372 82.6849 52.7441 82.3877 52.6582 82.0869C52.5723 81.7861 52.4827 81.4889 52.3896 81.1953ZM71.6826 90.6055C71.6826 91.7298 71.2207 92.6143 70.2969 93.2588C69.3802 93.8962 68.109 94.2148 66.4834 94.2148C64.8864 94.2148 63.6618 93.9642 62.8096 93.4629C61.9645 92.9544 61.4023 92.1667 61.123 91.0996L63.7764 90.7021C63.9268 91.2536 64.1846 91.6439 64.5498 91.873C64.9222 92.1022 65.5667 92.2168 66.4834 92.2168C67.3285 92.2168 67.9443 92.1094 68.3311 91.8945C68.7178 91.6797 68.9111 91.3431 68.9111 90.8848C68.9111 90.5124 68.7536 90.2188 68.4385 90.0039C68.1305 89.7819 67.6042 89.5957 66.8594 89.4453C66.2936 89.3307 65.7852 89.2197 65.334 89.1123C64.89 89.0049 64.5068 88.901 64.1846 88.8008C63.8695 88.6934 63.6117 88.5931 63.4111 88.5C62.8167 88.2064 62.362 87.8304 62.0469 87.3721C61.7389 86.9137 61.585 86.348 61.585 85.6748C61.585 84.5648 62.0111 83.7018 62.8633 83.0859C63.7227 82.4629 64.9365 82.1514 66.5049 82.1514C67.887 82.1514 68.9971 82.4199 69.835 82.957C70.68 83.4941 71.2064 84.2712 71.4141 85.2881L68.7393 85.5674C68.6533 85.0947 68.4421 84.7438 68.1055 84.5146C67.7689 84.2783 67.2354 84.1602 66.5049 84.1602C65.7887 84.1602 65.2516 84.2533 64.8936 84.4395C64.5355 84.6185 64.3564 84.9229 64.3564 85.3525C64.3564 85.6891 64.4925 85.9577 64.7646 86.1582C65.0439 86.3516 65.5094 86.5127 66.1611 86.6416C67.0706 86.8278 67.8763 87.0212 68.5781 87.2217C69.2871 87.415 69.8564 87.6478 70.2861 87.9199C70.7087 88.1921 71.0452 88.543 71.2959 88.9727C71.5537 89.3952 71.6826 89.9395 71.6826 90.6055ZM79.041 86.9854V89.6064H73.4551V86.9854H79.041ZM91.2549 90.6055C91.2549 91.7298 90.793 92.6143 89.8691 93.2588C88.9525 93.8962 87.6813 94.2148 86.0557 94.2148C84.4587 94.2148 83.234 93.9642 82.3818 93.4629C81.5368 92.9544 80.9746 92.1667 80.6953 91.0996L83.3486 90.7021C83.499 91.2536 83.7568 91.6439 84.1221 91.873C84.4945 92.1022 85.139 92.2168 86.0557 92.2168C86.9007 92.2168 87.5166 92.1094 87.9033 91.8945C88.29 91.6797 88.4834 91.3431 88.4834 90.8848C88.4834 90.5124 88.3258 90.2188 88.0107 90.0039C87.7028 89.7819 87.1764 89.5957 86.4316 89.4453C85.8659 89.3307 85.3574 89.2197 84.9062 89.1123C84.4622 89.0049 84.0791 88.901 83.7568 88.8008C83.4417 88.6934 83.1839 88.5931 82.9834 88.5C82.389 88.2064 81.9342 87.8304 81.6191 87.3721C81.3112 86.9137 81.1572 86.348 81.1572 85.6748C81.1572 84.5648 81.5833 83.7018 82.4355 83.0859C83.2949 82.4629 84.5088 82.1514 86.0771 82.1514C87.4593 82.1514 88.5693 82.4199 89.4072 82.957C90.2523 83.4941 90.7786 84.2712 90.9863 85.2881L88.3115 85.5674C88.2256 85.0947 88.0143 84.7438 87.6777 84.5146C87.3411 84.2783 86.8076 84.1602 86.0771 84.1602C85.361 84.1602 84.8239 84.2533 84.4658 84.4395C84.1077 84.6185 83.9287 84.9229 83.9287 85.3525C83.9287 85.6891 84.0648 85.9577 84.3369 86.1582C84.6162 86.3516 85.0817 86.5127 85.7334 86.6416C86.6429 86.8278 87.4486 87.0212 88.1504 87.2217C88.8594 87.415 89.4287 87.6478 89.8584 87.9199C90.2809 88.1921 90.6175 88.543 90.8682 88.9727C91.126 89.3952 91.2549 89.9395 91.2549 90.6055ZM96.3896 94.2148C95.2653 94.2148 94.388 93.9105 93.7578 93.3018C93.1276 92.6859 92.8125 91.8229 92.8125 90.7129C92.8125 89.5098 93.2028 88.5967 93.9834 87.9736C94.7712 87.3506 95.9098 87.0247 97.3994 86.9961L99.9023 86.9531V86.3623C99.9023 85.6032 99.7699 85.041 99.5049 84.6758C99.2399 84.3034 98.8066 84.1172 98.2051 84.1172C97.6465 84.1172 97.2347 84.2461 96.9697 84.5039C96.7119 84.7546 96.5508 85.1735 96.4863 85.7607L93.3389 85.6104C93.7327 83.3115 95.3978 82.1621 98.334 82.1621C99.8021 82.1621 100.934 82.5238 101.729 83.2471C102.523 83.9704 102.921 84.998 102.921 86.3301V90.5625C102.921 91.2142 102.993 91.6654 103.136 91.916C103.286 92.1595 103.533 92.2812 103.877 92.2812C104.106 92.2812 104.328 92.2598 104.543 92.2168V93.8496C104.171 93.9427 103.852 94.0107 103.587 94.0537C103.322 94.1038 102.996 94.1289 102.609 94.1289C101.85 94.1289 101.288 93.9427 100.923 93.5703C100.565 93.1979 100.35 92.6501 100.278 91.9268H100.214C99.7913 92.6859 99.2614 93.2588 98.624 93.6455C97.9867 94.0251 97.2419 94.2148 96.3896 94.2148ZM99.9023 88.6182L98.3555 88.6396C97.6465 88.6755 97.1488 88.7507 96.8623 88.8652C96.5687 88.9941 96.3431 89.1875 96.1855 89.4453C96.0352 89.7031 95.96 90.0469 95.96 90.4766C95.96 91.028 96.0853 91.4398 96.3359 91.7119C96.5938 91.9769 96.9339 92.1094 97.3564 92.1094C97.8291 92.1094 98.2624 91.9805 98.6562 91.7227C99.043 91.4648 99.3473 91.1104 99.5693 90.6592C99.7913 90.2008 99.9023 89.7174 99.9023 89.209V88.6182ZM108.969 78.0586V94H105.95V78.0586H108.969ZM114.759 94.2148C113.634 94.2148 112.757 93.9105 112.127 93.3018C111.497 92.6859 111.182 91.8229 111.182 90.7129C111.182 89.5098 111.572 88.5967 112.353 87.9736C113.14 87.3506 114.279 87.0247 115.769 86.9961L118.271 86.9531V86.3623C118.271 85.6032 118.139 85.041 117.874 84.6758C117.609 84.3034 117.176 84.1172 116.574 84.1172C116.016 84.1172 115.604 84.2461 115.339 84.5039C115.081 84.7546 114.92 85.1735 114.855 85.7607L111.708 85.6104C112.102 83.3115 113.767 82.1621 116.703 82.1621C118.171 82.1621 119.303 82.5238 120.098 83.2471C120.893 83.9704 121.29 84.998 121.29 86.3301V90.5625C121.29 91.2142 121.362 91.6654 121.505 91.916C121.655 92.1595 121.902 92.2812 122.246 92.2812C122.475 92.2812 122.697 92.2598 122.912 92.2168V93.8496C122.54 93.9427 122.221 94.0107 121.956 94.0537C121.691 94.1038 121.365 94.1289 120.979 94.1289C120.219 94.1289 119.657 93.9427 119.292 93.5703C118.934 93.1979 118.719 92.6501 118.647 91.9268H118.583C118.16 92.6859 117.631 93.2588 116.993 93.6455C116.356 94.0251 115.611 94.2148 114.759 94.2148ZM118.271 88.6182L116.725 88.6396C116.016 88.6755 115.518 88.7507 115.231 88.8652C114.938 88.9941 114.712 89.1875 114.555 89.4453C114.404 89.7031 114.329 90.0469 114.329 90.4766C114.329 91.028 114.454 91.4398 114.705 91.7119C114.963 91.9769 115.303 92.1094 115.726 92.1094C116.198 92.1094 116.632 91.9805 117.025 91.7227C117.412 91.4648 117.716 91.1104 117.938 90.6592C118.16 90.2008 118.271 89.7174 118.271 89.209V88.6182ZM127.338 87.7695V94H124.319V84.9766C124.319 84.3535 124.309 83.8451 124.287 83.4512C124.273 83.0501 124.255 82.6921 124.233 82.377H127.112C127.127 82.4629 127.145 82.667 127.166 82.9893C127.188 83.3044 127.205 83.6302 127.22 83.9668C127.241 84.2962 127.252 84.5361 127.252 84.6865H127.295C127.667 83.7985 128.129 83.154 128.681 82.7529C129.239 82.3519 129.905 82.1514 130.679 82.1514C131.567 82.1514 132.279 82.3626 132.816 82.7852C133.361 83.2077 133.726 83.8415 133.912 84.6865H133.977C134.37 83.7842 134.843 83.1361 135.395 82.7422C135.946 82.3483 136.648 82.1514 137.5 82.1514C138.632 82.1514 139.494 82.5381 140.089 83.3115C140.683 84.0778 140.98 85.1807 140.98 86.6201V94H137.983V87.4795C137.983 86.4554 137.837 85.6891 137.543 85.1807C137.249 84.6722 136.809 84.418 136.222 84.418C135.634 84.418 135.144 84.7044 134.75 85.2773C134.356 85.8431 134.159 86.6273 134.159 87.6299V94H131.162V87.4795C131.162 86.4554 131.015 85.6891 130.722 85.1807C130.428 84.6722 129.988 84.418 129.4 84.418C128.792 84.418 128.294 84.7295 127.907 85.3525C127.528 85.9756 127.338 86.7812 127.338 87.7695ZM151.282 91.6904C150.881 92.5713 150.369 93.2122 149.746 93.6133C149.13 94.0143 148.396 94.2148 147.544 94.2148C146.312 94.2148 145.367 93.8389 144.708 93.0869C144.049 92.3278 143.72 91.2178 143.72 89.7568V82.377H146.738V88.8975C146.738 89.9144 146.91 90.6807 147.254 91.1963C147.598 91.7048 148.113 91.959 148.801 91.959C149.531 91.959 150.118 91.6475 150.562 91.0244C151.014 90.3942 151.239 89.5885 151.239 88.6074V82.377H154.258V91.4004C154.258 91.8945 154.265 92.36 154.279 92.7969C154.294 93.2266 154.315 93.6276 154.344 94H151.465C151.422 93.4844 151.39 93.0332 151.368 92.6465C151.347 92.2598 151.336 91.9411 151.336 91.6904H151.282ZM166.149 94.2148C165.025 94.2148 164.148 93.9105 163.518 93.3018C162.887 92.6859 162.572 91.8229 162.572 90.7129C162.572 89.5098 162.963 88.5967 163.743 87.9736C164.531 87.3506 165.67 87.0247 167.159 86.9961L169.662 86.9531V86.3623C169.662 85.6032 169.53 85.041 169.265 84.6758C169 84.3034 168.566 84.1172 167.965 84.1172C167.406 84.1172 166.994 84.2461 166.729 84.5039C166.472 84.7546 166.311 85.1735 166.246 85.7607L163.099 85.6104C163.493 83.3115 165.158 82.1621 168.094 82.1621C169.562 82.1621 170.693 82.5238 171.488 83.2471C172.283 83.9704 172.681 84.998 172.681 86.3301V90.5625C172.681 91.2142 172.752 91.6654 172.896 91.916C173.046 92.1595 173.293 92.2812 173.637 92.2812C173.866 92.2812 174.088 92.2598 174.303 92.2168V93.8496C173.93 93.9427 173.612 94.0107 173.347 94.0537C173.082 94.1038 172.756 94.1289 172.369 94.1289C171.61 94.1289 171.048 93.9427 170.683 93.5703C170.325 93.1979 170.11 92.6501 170.038 91.9268H169.974C169.551 92.6859 169.021 93.2588 168.384 93.6455C167.746 94.0251 167.002 94.2148 166.149 94.2148ZM169.662 88.6182L168.115 88.6396C167.406 88.6755 166.909 88.7507 166.622 88.8652C166.328 88.9941 166.103 89.1875 165.945 89.4453C165.795 89.7031 165.72 90.0469 165.72 90.4766C165.72 91.028 165.845 91.4398 166.096 91.7119C166.354 91.9769 166.694 92.1094 167.116 92.1094C167.589 92.1094 168.022 91.9805 168.416 91.7227C168.803 91.4648 169.107 91.1104 169.329 90.6592C169.551 90.2008 169.662 89.7174 169.662 89.209V88.6182ZM178.729 78.0586V94H175.71V78.0586H178.729ZM184.519 94.2148C183.394 94.2148 182.517 93.9105 181.887 93.3018C181.257 92.6859 180.941 91.8229 180.941 90.7129C180.941 89.5098 181.332 88.5967 182.112 87.9736C182.9 87.3506 184.039 87.0247 185.528 86.9961L188.031 86.9531V86.3623C188.031 85.6032 187.899 85.041 187.634 84.6758C187.369 84.3034 186.936 84.1172 186.334 84.1172C185.775 84.1172 185.364 84.2461 185.099 84.5039C184.841 84.7546 184.68 85.1735 184.615 85.7607L181.468 85.6104C181.862 83.3115 183.527 82.1621 186.463 82.1621C187.931 82.1621 189.062 82.5238 189.857 83.2471C190.652 83.9704 191.05 84.998 191.05 86.3301V90.5625C191.05 91.2142 191.121 91.6654 191.265 91.916C191.415 92.1595 191.662 92.2812 192.006 92.2812C192.235 92.2812 192.457 92.2598 192.672 92.2168V93.8496C192.299 93.9427 191.981 94.0107 191.716 94.0537C191.451 94.1038 191.125 94.1289 190.738 94.1289C189.979 94.1289 189.417 93.9427 189.052 93.5703C188.694 93.1979 188.479 92.6501 188.407 91.9268H188.343C187.92 92.6859 187.39 93.2588 186.753 93.6455C186.116 94.0251 185.371 94.2148 184.519 94.2148ZM188.031 88.6182L186.484 88.6396C185.775 88.6755 185.278 88.7507 184.991 88.8652C184.698 88.9941 184.472 89.1875 184.314 89.4453C184.164 89.7031 184.089 90.0469 184.089 90.4766C184.089 91.028 184.214 91.4398 184.465 91.7119C184.723 91.9769 185.063 92.1094 185.485 92.1094C185.958 92.1094 186.391 91.9805 186.785 91.7227C187.172 91.4648 187.476 91.1104 187.698 90.6592C187.92 90.2008 188.031 89.7174 188.031 89.209V88.6182ZM195.583 98.5654C194.845 98.5654 194.212 98.5189 193.682 98.4258V96.2773C194.083 96.3346 194.43 96.3633 194.724 96.3633C195.425 96.3633 195.948 96.1735 196.292 95.7939C196.643 95.4144 196.983 94.777 197.312 93.8818L192.715 82.377H195.905L197.731 87.8232C197.875 88.2171 198.036 88.7113 198.215 89.3057C198.394 89.9001 198.594 90.6019 198.816 91.4111C198.981 90.7523 199.139 90.1436 199.289 89.585C199.439 89.0264 199.604 88.4535 199.783 87.8662L201.502 82.377H204.66L200.062 94.6123C199.876 95.1064 199.679 95.5433 199.472 95.9229C199.264 96.3024 199.053 96.639 198.838 96.9326C198.401 97.527 197.925 97.946 197.409 98.1895C196.894 98.4401 196.285 98.5654 195.583 98.5654ZM209.344 89.6387V94H206.325V78.0586H209.344V87.1895L213.49 82.377H216.734L212.652 86.9102L217.046 94H213.748L210.644 88.7363L209.344 89.6387ZM225.962 91.6904C225.561 92.5713 225.049 93.2122 224.426 93.6133C223.81 94.0143 223.076 94.2148 222.224 94.2148C220.992 94.2148 220.047 93.8389 219.388 93.0869C218.729 92.3278 218.399 91.2178 218.399 89.7568V82.377H221.418V88.8975C221.418 89.9144 221.59 90.6807 221.934 91.1963C222.277 91.7048 222.793 91.959 223.48 91.959C224.211 91.959 224.798 91.6475 225.242 91.0244C225.693 90.3942 225.919 89.5885 225.919 88.6074V82.377H228.938V91.4004C228.938 91.8945 228.945 92.36 228.959 92.7969C228.973 93.2266 228.995 93.6276 229.023 94H226.145C226.102 93.4844 226.069 93.0332 226.048 92.6465C226.026 92.2598 226.016 91.9411 226.016 91.6904H225.962ZM235.039 87.7695V94H232.021V84.9766C232.021 84.3535 232.01 83.8451 231.988 83.4512C231.974 83.0501 231.956 82.6921 231.935 82.377H234.813C234.828 82.4629 234.846 82.667 234.867 82.9893C234.889 83.3044 234.907 83.6302 234.921 83.9668C234.942 84.2962 234.953 84.5361 234.953 84.6865H234.996C235.368 83.7985 235.83 83.154 236.382 82.7529C236.94 82.3519 237.606 82.1514 238.38 82.1514C239.268 82.1514 239.98 82.3626 240.518 82.7852C241.062 83.2077 241.427 83.8415 241.613 84.6865H241.678C242.072 83.7842 242.544 83.1361 243.096 82.7422C243.647 82.3483 244.349 82.1514 245.201 82.1514C246.333 82.1514 247.196 82.5381 247.79 83.3115C248.384 84.0778 248.682 85.1807 248.682 86.6201V94H245.685V87.4795C245.685 86.4554 245.538 85.6891 245.244 85.1807C244.951 84.6722 244.51 84.418 243.923 84.418C243.336 84.418 242.845 84.7044 242.451 85.2773C242.057 85.8431 241.86 86.6273 241.86 87.6299V94H238.863V87.4795C238.863 86.4554 238.716 85.6891 238.423 85.1807C238.129 84.6722 237.689 84.418 237.102 84.418C236.493 84.418 235.995 84.7295 235.608 85.3525C235.229 85.9756 235.039 86.7812 235.039 87.7695ZM254.697 93.291C254.697 94.1504 254.604 94.9095 254.418 95.5684C254.239 96.2272 253.945 96.8395 253.537 97.4053H251.55C251.972 96.8968 252.316 96.3382 252.581 95.7295C252.846 95.1208 252.979 94.5443 252.979 94H251.593V90.7236H254.697V93.291ZM276.117 89.6387C276.117 91.1211 275.566 92.2562 274.463 93.0439C273.367 93.8245 271.756 94.2148 269.629 94.2148C265.798 94.2148 263.567 92.8291 262.937 90.0576L265.998 89.5527C266.206 90.3548 266.61 90.9385 267.212 91.3037C267.813 91.6618 268.648 91.8408 269.715 91.8408C270.825 91.8408 271.656 91.6725 272.207 91.3359C272.758 90.9993 273.034 90.4945 273.034 89.8213C273.034 89.3916 272.909 89.0371 272.658 88.7578C272.408 88.4785 272.049 88.2458 271.584 88.0596C271.355 87.9665 271.018 87.8662 270.574 87.7588C270.13 87.6442 269.579 87.5189 268.92 87.3828C268.161 87.2038 267.566 87.0534 267.137 86.9316C266.707 86.8027 266.363 86.681 266.105 86.5664C265.848 86.4447 265.597 86.3122 265.354 86.1689C264.816 85.8467 264.397 85.417 264.097 84.8799C263.796 84.3428 263.646 83.6732 263.646 82.8711C263.646 81.5033 264.158 80.4577 265.182 79.7344C266.213 79.0039 267.71 78.6387 269.672 78.6387C271.548 78.6387 272.955 78.9323 273.894 79.5195C274.839 80.1068 275.448 81.0771 275.72 82.4307L272.647 82.8496C272.49 82.1979 272.168 81.7074 271.681 81.3779C271.201 81.0485 270.51 80.8838 269.607 80.8838C268.648 80.8838 267.928 81.0342 267.448 81.335C266.968 81.6357 266.729 82.0869 266.729 82.6885C266.729 83.0824 266.829 83.4046 267.029 83.6553C267.237 83.9059 267.541 84.1208 267.942 84.2998C268.322 84.4717 269.135 84.6901 270.381 84.9551C271.104 85.1126 271.727 85.263 272.25 85.4062C272.773 85.5423 273.192 85.6748 273.507 85.8037C273.822 85.9398 274.101 86.083 274.345 86.2334C274.595 86.3838 274.81 86.5449 274.989 86.7168C275.354 87.0677 275.634 87.4867 275.827 87.9736C276.021 88.4535 276.117 89.0085 276.117 89.6387ZM284.034 93.8281C283.304 94.0716 282.455 94.1934 281.488 94.1934C280.6 94.1934 279.916 93.9535 279.437 93.4736C278.957 92.9867 278.717 92.2526 278.717 91.2715V84.418H277.245V82.377H278.867L279.812 79.6484H281.703V82.377H283.905V84.418H281.703V90.4551C281.703 91.0208 281.811 91.4398 282.025 91.7119C282.24 91.9769 282.573 92.1094 283.024 92.1094C283.239 92.1094 283.576 92.0592 284.034 91.959V93.8281ZM293.229 91.6904C292.828 92.5713 292.316 93.2122 291.693 93.6133C291.077 94.0143 290.343 94.2148 289.491 94.2148C288.259 94.2148 287.314 93.8389 286.655 93.0869C285.996 92.3278 285.667 91.2178 285.667 89.7568V82.377H288.686V88.8975C288.686 89.9144 288.857 90.6807 289.201 91.1963C289.545 91.7048 290.061 91.959 290.748 91.959C291.479 91.959 292.066 91.6475 292.51 91.0244C292.961 90.3942 293.187 89.5885 293.187 88.6074V82.377H296.205V91.4004C296.205 91.8945 296.212 92.36 296.227 92.7969C296.241 93.2266 296.262 93.6276 296.291 94H293.412C293.369 93.4844 293.337 93.0332 293.315 92.6465C293.294 92.2598 293.283 91.9411 293.283 91.6904H293.229ZM306.818 94C306.804 93.9284 306.783 93.778 306.754 93.5488C306.725 93.3197 306.7 93.069 306.679 92.7969C306.664 92.5247 306.657 92.2956 306.657 92.1094H306.614C306.285 92.8112 305.812 93.3376 305.196 93.6885C304.58 94.0394 303.814 94.2148 302.897 94.2148C301.544 94.2148 300.498 93.6885 299.761 92.6357C299.023 91.5758 298.654 90.097 298.654 88.1992C298.654 86.2728 299.041 84.7868 299.814 83.7412C300.595 82.6885 301.698 82.1621 303.123 82.1621C303.947 82.1621 304.656 82.334 305.25 82.6777C305.852 83.0215 306.313 83.5335 306.636 84.2139H306.657L306.636 82.3018V78.0586H309.654V91.4648C309.654 91.8229 309.661 92.2132 309.676 92.6357C309.69 93.0583 309.712 93.513 309.74 94H306.818ZM301.802 88.1992C301.802 89.5169 301.999 90.5052 302.393 91.1641C302.794 91.8229 303.388 92.1523 304.176 92.1523C304.971 92.1523 305.587 91.805 306.023 91.1104C306.46 90.4085 306.679 89.4131 306.679 88.124C306.679 86.8708 306.467 85.9076 306.045 85.2344C305.63 84.554 305.014 84.2139 304.197 84.2139C303.388 84.2139 302.786 84.5433 302.393 85.2021C301.999 85.8538 301.802 86.8529 301.802 88.1992ZM315.229 88.7686C315.229 89.9001 315.437 90.7559 315.853 91.3359C316.275 91.9089 316.873 92.1953 317.646 92.1953C318.176 92.1953 318.61 92.0807 318.946 91.8516C319.29 91.6152 319.53 91.2679 319.666 90.8096L322.513 91.0566C321.689 93.1621 320.017 94.2148 317.496 94.2148C315.749 94.2148 314.406 93.6992 313.468 92.668C312.53 91.6296 312.061 90.1185 312.061 88.1348C312.061 86.2155 312.537 84.7402 313.489 83.709C314.442 82.6777 315.792 82.1621 317.539 82.1621C319.208 82.1621 320.482 82.7171 321.363 83.8271C322.244 84.93 322.685 86.5485 322.685 88.6826V88.7686H315.229ZM319.763 86.8779C319.705 85.9398 319.48 85.238 319.086 84.7725C318.692 84.2998 318.162 84.0635 317.496 84.0635C316.787 84.0635 316.239 84.3105 315.853 84.8047C315.473 85.2988 315.272 85.9899 315.251 86.8779H319.763ZM328.002 87.7695V94H324.983V84.9766C324.983 84.3535 324.973 83.8451 324.951 83.4512C324.937 83.0501 324.919 82.6921 324.897 82.377H327.776C327.791 82.4629 327.809 82.667 327.83 82.9893C327.852 83.3044 327.869 83.6302 327.884 83.9668C327.905 84.2962 327.916 84.5361 327.916 84.6865H327.959C328.367 83.7985 328.879 83.154 329.495 82.7529C330.111 82.3519 330.845 82.1514 331.697 82.1514C332.929 82.1514 333.874 82.5309 334.533 83.29C335.192 84.0492 335.521 85.1592 335.521 86.6201V94H332.514V87.4795C332.514 86.4554 332.342 85.6891 331.998 85.1807C331.654 84.6722 331.135 84.418 330.44 84.418C329.71 84.418 329.119 84.7331 328.668 85.3633C328.224 85.9863 328.002 86.7884 328.002 87.7695ZM343.954 93.8281C343.224 94.0716 342.375 94.1934 341.408 94.1934C340.52 94.1934 339.836 93.9535 339.356 93.4736C338.877 92.9867 338.637 92.2526 338.637 91.2715V84.418H337.165V82.377H338.787L339.732 79.6484H341.623V82.377H343.825V84.418H341.623V90.4551C341.623 91.0208 341.73 91.4398 341.945 91.7119C342.16 91.9769 342.493 92.1094 342.944 92.1094C343.159 92.1094 343.496 92.0592 343.954 91.959V93.8281ZM349.454 78.8643L349.11 89.4238H346.64L346.296 78.8643H349.454ZM349.39 91.0996V94H346.296V91.0996H349.39Z" fill="url(#paint1_linear_575_940)"/>
<path d="M18.2646 125.041L16.1807 134H12.4209L8.52148 118.864H11.7334L13.8389 128.135C13.932 128.529 14.0322 128.983 14.1396 129.499C14.2542 130.015 14.3473 130.516 14.4189 131.003C14.4906 130.666 14.555 130.34 14.6123 130.025C14.6768 129.703 14.7412 129.388 14.8057 129.08C14.8701 128.765 14.9382 128.453 15.0098 128.146L17.1475 118.864H20.6924L22.8086 127.812C22.8802 128.113 22.9661 128.55 23.0664 129.123C23.1738 129.696 23.2741 130.323 23.3672 131.003C23.4603 130.588 23.5426 130.222 23.6143 129.907C23.693 129.585 23.7682 129.266 23.8398 128.951C23.9186 128.629 24.001 128.264 24.0869 127.855L26.0312 118.864H29.2432L25.333 134H21.5732L19.5215 125.245C19.3997 124.729 19.2852 124.203 19.1777 123.666C19.0703 123.129 18.9736 122.577 18.8877 122.012C18.8304 122.32 18.7588 122.681 18.6729 123.097C18.5869 123.512 18.5046 123.899 18.4258 124.257C18.3542 124.615 18.3005 124.876 18.2646 125.041ZM32.8955 128.769C32.8955 129.9 33.1032 130.756 33.5186 131.336C33.9411 131.909 34.5391 132.195 35.3125 132.195C35.8424 132.195 36.2757 132.081 36.6123 131.852C36.9561 131.615 37.196 131.268 37.332 130.81L40.1787 131.057C39.3551 133.162 37.6829 134.215 35.1621 134.215C33.4147 134.215 32.0719 133.699 31.1338 132.668C30.1956 131.63 29.7266 130.118 29.7266 128.135C29.7266 126.215 30.2028 124.74 31.1553 123.709C32.1077 122.678 33.4577 122.162 35.2051 122.162C36.8737 122.162 38.1484 122.717 39.0293 123.827C39.9102 124.93 40.3506 126.549 40.3506 128.683V128.769H32.8955ZM37.4287 126.878C37.3714 125.94 37.1458 125.238 36.752 124.772C36.3581 124.3 35.8281 124.063 35.1621 124.063C34.4531 124.063 33.9053 124.311 33.5186 124.805C33.139 125.299 32.9385 125.99 32.917 126.878H37.4287ZM45.668 118.059V134H42.6494V118.059H45.668ZM53.6172 134.215C51.8555 134.215 50.4948 133.692 49.5352 132.646C48.5755 131.594 48.0957 130.129 48.0957 128.253C48.0957 126.334 48.5791 124.84 49.5459 123.773C50.5127 122.699 51.8841 122.162 53.6602 122.162C55.028 122.162 56.1595 122.506 57.0547 123.193C57.9499 123.881 58.512 124.83 58.7412 126.04L55.7012 126.19C55.6152 125.596 55.4004 125.123 55.0566 124.772C54.7129 124.414 54.2259 124.235 53.5957 124.235C52.8151 124.235 52.2314 124.561 51.8447 125.213C51.458 125.857 51.2646 126.831 51.2646 128.135C51.2646 129.474 51.4616 130.48 51.8555 131.153C52.2565 131.819 52.8509 132.152 53.6387 132.152C54.2116 132.152 54.6914 131.973 55.0781 131.615C55.4648 131.25 55.7048 130.709 55.7979 129.993L58.8271 130.133C58.7197 130.949 58.4297 131.665 57.957 132.281C57.4915 132.89 56.8864 133.366 56.1416 133.71C55.3968 134.047 54.5553 134.215 53.6172 134.215ZM72.0615 128.178C72.0615 130.061 71.5387 131.54 70.4932 132.614C69.4476 133.681 68.001 134.215 66.1533 134.215C64.3415 134.215 62.9199 133.678 61.8887 132.604C60.8574 131.529 60.3418 130.054 60.3418 128.178C60.3418 126.309 60.8574 124.84 61.8887 123.773C62.9199 122.699 64.363 122.162 66.2178 122.162C68.1156 122.162 69.5622 122.681 70.5576 123.72C71.5602 124.751 72.0615 126.237 72.0615 128.178ZM68.9033 128.178C68.9033 126.796 68.6777 125.793 68.2266 125.17C67.7754 124.547 67.1201 124.235 66.2607 124.235C65.3441 124.235 64.6566 124.565 64.1982 125.224C63.7399 125.875 63.5107 126.86 63.5107 128.178C63.5107 129.474 63.7327 130.462 64.1768 131.143C64.6279 131.816 65.276 132.152 66.1211 132.152C67.0521 132.152 67.7467 131.823 68.2051 131.164C68.6706 130.498 68.9033 129.503 68.9033 128.178ZM77.4863 127.77V134H74.4678V124.977C74.4678 124.354 74.457 123.845 74.4355 123.451C74.4212 123.05 74.4033 122.692 74.3818 122.377H77.2607C77.2751 122.463 77.293 122.667 77.3145 122.989C77.3359 123.304 77.3538 123.63 77.3682 123.967C77.3896 124.296 77.4004 124.536 77.4004 124.687H77.4434C77.8158 123.799 78.2777 123.154 78.8291 122.753C79.3877 122.352 80.0537 122.151 80.8271 122.151C81.7152 122.151 82.4277 122.363 82.9648 122.785C83.5091 123.208 83.8743 123.841 84.0605 124.687H84.125C84.5189 123.784 84.9915 123.136 85.543 122.742C86.0944 122.348 86.7962 122.151 87.6484 122.151C88.7799 122.151 89.6429 122.538 90.2373 123.312C90.8317 124.078 91.1289 125.181 91.1289 126.62V134H88.1318V127.479C88.1318 126.455 87.985 125.689 87.6914 125.181C87.3978 124.672 86.9574 124.418 86.3701 124.418C85.7829 124.418 85.2923 124.704 84.8984 125.277C84.5046 125.843 84.3076 126.627 84.3076 127.63V134H81.3105V127.479C81.3105 126.455 81.1637 125.689 80.8701 125.181C80.5765 124.672 80.1361 124.418 79.5488 124.418C78.9401 124.418 78.4424 124.729 78.0557 125.353C77.6761 125.976 77.4863 126.781 77.4863 127.77ZM96.5322 128.769C96.5322 129.9 96.7399 130.756 97.1553 131.336C97.5778 131.909 98.1758 132.195 98.9492 132.195C99.4792 132.195 99.9124 132.081 100.249 131.852C100.593 131.615 100.833 131.268 100.969 130.81L103.815 131.057C102.992 133.162 101.32 134.215 98.7988 134.215C97.0514 134.215 95.7087 133.699 94.7705 132.668C93.8324 131.63 93.3633 130.118 93.3633 128.135C93.3633 126.215 93.8395 124.74 94.792 123.709C95.7445 122.678 97.0944 122.162 98.8418 122.162C100.51 122.162 101.785 122.717 102.666 123.827C103.547 124.93 103.987 126.549 103.987 128.683V128.769H96.5322ZM101.065 126.878C101.008 125.94 100.783 125.238 100.389 124.772C99.9948 124.3 99.4648 124.063 98.7988 124.063C98.0898 124.063 97.542 124.311 97.1553 124.805C96.7757 125.299 96.5752 125.99 96.5537 126.878H101.065ZM123.409 128.146C123.409 130.065 123.022 131.558 122.249 132.625C121.483 133.685 120.383 134.215 118.951 134.215C118.128 134.215 117.415 134.036 116.813 133.678C116.212 133.32 115.75 132.804 115.428 132.131H115.406C115.406 132.296 115.399 132.51 115.385 132.775C115.37 133.04 115.353 133.291 115.331 133.527C115.31 133.757 115.285 133.914 115.256 134H112.323C112.352 133.663 112.373 133.277 112.388 132.84C112.402 132.396 112.409 131.898 112.409 131.347V118.059H115.428V122.506C115.428 122.821 115.421 123.136 115.406 123.451C115.399 123.766 115.392 124.081 115.385 124.396H115.428C115.764 123.652 116.244 123.093 116.867 122.721C117.49 122.348 118.249 122.162 119.145 122.162C120.52 122.162 121.572 122.685 122.303 123.73C123.04 124.769 123.409 126.241 123.409 128.146ZM120.262 128.146C120.262 126.828 120.068 125.85 119.682 125.213C119.295 124.576 118.697 124.257 117.888 124.257C117.071 124.257 116.448 124.601 116.019 125.288C115.596 125.968 115.385 126.953 115.385 128.242C115.385 129.474 115.592 130.434 116.008 131.121C116.43 131.809 117.05 132.152 117.866 132.152C118.668 132.152 119.266 131.819 119.66 131.153C120.061 130.487 120.262 129.485 120.262 128.146ZM128.544 134.215C127.42 134.215 126.542 133.91 125.912 133.302C125.282 132.686 124.967 131.823 124.967 130.713C124.967 129.51 125.357 128.597 126.138 127.974C126.925 127.351 128.064 127.025 129.554 126.996L132.057 126.953V126.362C132.057 125.603 131.924 125.041 131.659 124.676C131.394 124.303 130.961 124.117 130.359 124.117C129.801 124.117 129.389 124.246 129.124 124.504C128.866 124.755 128.705 125.174 128.641 125.761L125.493 125.61C125.887 123.312 127.552 122.162 130.488 122.162C131.956 122.162 133.088 122.524 133.883 123.247C134.678 123.97 135.075 124.998 135.075 126.33V130.562C135.075 131.214 135.147 131.665 135.29 131.916C135.44 132.16 135.688 132.281 136.031 132.281C136.26 132.281 136.482 132.26 136.697 132.217V133.85C136.325 133.943 136.006 134.011 135.741 134.054C135.476 134.104 135.15 134.129 134.764 134.129C134.005 134.129 133.442 133.943 133.077 133.57C132.719 133.198 132.504 132.65 132.433 131.927H132.368C131.946 132.686 131.416 133.259 130.778 133.646C130.141 134.025 129.396 134.215 128.544 134.215ZM132.057 128.618L130.51 128.64C129.801 128.675 129.303 128.751 129.017 128.865C128.723 128.994 128.497 129.188 128.34 129.445C128.189 129.703 128.114 130.047 128.114 130.477C128.114 131.028 128.24 131.44 128.49 131.712C128.748 131.977 129.088 132.109 129.511 132.109C129.983 132.109 130.417 131.98 130.811 131.723C131.197 131.465 131.502 131.11 131.724 130.659C131.946 130.201 132.057 129.717 132.057 129.209V128.618ZM142.949 134.215C141.188 134.215 139.827 133.692 138.867 132.646C137.908 131.594 137.428 130.129 137.428 128.253C137.428 126.334 137.911 124.84 138.878 123.773C139.845 122.699 141.216 122.162 142.992 122.162C144.36 122.162 145.492 122.506 146.387 123.193C147.282 123.881 147.844 124.83 148.073 126.04L145.033 126.19C144.947 125.596 144.732 125.123 144.389 124.772C144.045 124.414 143.558 124.235 142.928 124.235C142.147 124.235 141.563 124.561 141.177 125.213C140.79 125.857 140.597 126.831 140.597 128.135C140.597 129.474 140.794 130.48 141.188 131.153C141.589 131.819 142.183 132.152 142.971 132.152C143.544 132.152 144.023 131.973 144.41 131.615C144.797 131.25 145.037 130.709 145.13 129.993L148.159 130.133C148.052 130.949 147.762 131.665 147.289 132.281C146.824 132.89 146.218 133.366 145.474 133.71C144.729 134.047 143.887 134.215 142.949 134.215ZM153.369 129.639V134H150.351V118.059H153.369V127.189L157.516 122.377H160.76L156.678 126.91L161.071 134H157.773L154.669 128.736L153.369 129.639ZM174.241 133.828C173.511 134.072 172.662 134.193 171.695 134.193C170.807 134.193 170.123 133.953 169.644 133.474C169.164 132.987 168.924 132.253 168.924 131.271V124.418H167.452V122.377H169.074L170.02 119.648H171.91V122.377H174.112V124.418H171.91V130.455C171.91 131.021 172.018 131.44 172.232 131.712C172.447 131.977 172.78 132.109 173.231 132.109C173.446 132.109 173.783 132.059 174.241 131.959V133.828ZM187.089 128.178C187.089 130.061 186.566 131.54 185.521 132.614C184.475 133.681 183.028 134.215 181.181 134.215C179.369 134.215 177.947 133.678 176.916 132.604C175.885 131.529 175.369 130.054 175.369 128.178C175.369 126.309 175.885 124.84 176.916 123.773C177.947 122.699 179.39 122.162 181.245 122.162C183.143 122.162 184.59 122.681 185.585 123.72C186.588 124.751 187.089 126.237 187.089 128.178ZM183.931 128.178C183.931 126.796 183.705 125.793 183.254 125.17C182.803 124.547 182.147 124.235 181.288 124.235C180.371 124.235 179.684 124.565 179.226 125.224C178.767 125.875 178.538 126.86 178.538 128.178C178.538 129.474 178.76 130.462 179.204 131.143C179.655 131.816 180.303 132.152 181.148 132.152C182.079 132.152 182.774 131.823 183.232 131.164C183.698 130.498 183.931 129.503 183.931 128.178ZM207.896 129.639C207.896 131.121 207.345 132.256 206.242 133.044C205.146 133.825 203.535 134.215 201.408 134.215C197.577 134.215 195.346 132.829 194.716 130.058L197.777 129.553C197.985 130.355 198.39 130.938 198.991 131.304C199.593 131.662 200.427 131.841 201.494 131.841C202.604 131.841 203.435 131.673 203.986 131.336C204.538 130.999 204.813 130.494 204.813 129.821C204.813 129.392 204.688 129.037 204.438 128.758C204.187 128.479 203.829 128.246 203.363 128.06C203.134 127.966 202.798 127.866 202.354 127.759C201.91 127.644 201.358 127.519 200.699 127.383C199.94 127.204 199.346 127.053 198.916 126.932C198.486 126.803 198.143 126.681 197.885 126.566C197.627 126.445 197.376 126.312 197.133 126.169C196.596 125.847 196.177 125.417 195.876 124.88C195.575 124.343 195.425 123.673 195.425 122.871C195.425 121.503 195.937 120.458 196.961 119.734C197.992 119.004 199.489 118.639 201.451 118.639C203.327 118.639 204.735 118.932 205.673 119.52C206.618 120.107 207.227 121.077 207.499 122.431L204.427 122.85C204.269 122.198 203.947 121.707 203.46 121.378C202.98 121.049 202.289 120.884 201.387 120.884C200.427 120.884 199.707 121.034 199.228 121.335C198.748 121.636 198.508 122.087 198.508 122.688C198.508 123.082 198.608 123.405 198.809 123.655C199.016 123.906 199.321 124.121 199.722 124.3C200.101 124.472 200.914 124.69 202.16 124.955C202.883 125.113 203.507 125.263 204.029 125.406C204.552 125.542 204.971 125.675 205.286 125.804C205.601 125.94 205.881 126.083 206.124 126.233C206.375 126.384 206.59 126.545 206.769 126.717C207.134 127.068 207.413 127.487 207.606 127.974C207.8 128.453 207.896 129.008 207.896 129.639ZM212.978 134.215C211.853 134.215 210.976 133.91 210.346 133.302C209.715 132.686 209.4 131.823 209.4 130.713C209.4 129.51 209.791 128.597 210.571 127.974C211.359 127.351 212.498 127.025 213.987 126.996L216.49 126.953V126.362C216.49 125.603 216.358 125.041 216.093 124.676C215.828 124.303 215.395 124.117 214.793 124.117C214.234 124.117 213.823 124.246 213.558 124.504C213.3 124.755 213.139 125.174 213.074 125.761L209.927 125.61C210.321 123.312 211.986 122.162 214.922 122.162C216.39 122.162 217.521 122.524 218.316 123.247C219.111 123.97 219.509 124.998 219.509 126.33V130.562C219.509 131.214 219.58 131.665 219.724 131.916C219.874 132.16 220.121 132.281 220.465 132.281C220.694 132.281 220.916 132.26 221.131 132.217V133.85C220.758 133.943 220.44 134.011 220.175 134.054C219.91 134.104 219.584 134.129 219.197 134.129C218.438 134.129 217.876 133.943 217.511 133.57C217.153 133.198 216.938 132.65 216.866 131.927H216.802C216.379 132.686 215.849 133.259 215.212 133.646C214.575 134.025 213.83 134.215 212.978 134.215ZM216.49 128.618L214.943 128.64C214.234 128.675 213.737 128.751 213.45 128.865C213.157 128.994 212.931 129.188 212.773 129.445C212.623 129.703 212.548 130.047 212.548 130.477C212.548 131.028 212.673 131.44 212.924 131.712C213.182 131.977 213.522 132.109 213.944 132.109C214.417 132.109 214.85 131.98 215.244 131.723C215.631 131.465 215.935 131.11 216.157 130.659C216.379 130.201 216.49 129.717 216.49 129.209V128.618ZM225.557 129.639V134H222.538V118.059H225.557V127.189L229.703 122.377H232.947L228.865 126.91L233.259 134H229.961L226.856 128.736L225.557 129.639ZM237.276 128.769C237.276 129.9 237.484 130.756 237.899 131.336C238.322 131.909 238.92 132.195 239.693 132.195C240.223 132.195 240.657 132.081 240.993 131.852C241.337 131.615 241.577 131.268 241.713 130.81L244.56 131.057C243.736 133.162 242.064 134.215 239.543 134.215C237.796 134.215 236.453 133.699 235.515 132.668C234.576 131.63 234.107 130.118 234.107 128.135C234.107 126.215 234.584 124.74 235.536 123.709C236.489 122.678 237.839 122.162 239.586 122.162C241.255 122.162 242.529 122.717 243.41 123.827C244.291 124.93 244.731 126.549 244.731 128.683V128.769H237.276ZM241.81 126.878C241.752 125.94 241.527 125.238 241.133 124.772C240.739 124.3 240.209 124.063 239.543 124.063C238.834 124.063 238.286 124.311 237.899 124.805C237.52 125.299 237.319 125.99 237.298 126.878H241.81ZM249.522 128.769C249.522 129.9 249.73 130.756 250.146 131.336C250.568 131.909 251.166 132.195 251.939 132.195C252.469 132.195 252.903 132.081 253.239 131.852C253.583 131.615 253.823 131.268 253.959 130.81L256.806 131.057C255.982 133.162 254.31 134.215 251.789 134.215C250.042 134.215 248.699 133.699 247.761 132.668C246.823 131.63 246.354 130.118 246.354 128.135C246.354 126.215 246.83 124.74 247.782 123.709C248.735 122.678 250.085 122.162 251.832 122.162C253.501 122.162 254.775 122.717 255.656 123.827C256.537 124.93 256.978 126.549 256.978 128.683V128.769H249.522ZM254.056 126.878C253.998 125.94 253.773 125.238 253.379 124.772C252.985 124.3 252.455 124.063 251.789 124.063C251.08 124.063 250.532 124.311 250.146 124.805C249.766 125.299 249.565 125.99 249.544 126.878H254.056ZM262.295 127.77V134H259.276V124.977C259.276 124.354 259.266 123.845 259.244 123.451C259.23 123.05 259.212 122.692 259.19 122.377H262.069C262.084 122.463 262.102 122.667 262.123 122.989C262.145 123.304 262.162 123.63 262.177 123.967C262.198 124.296 262.209 124.536 262.209 124.687H262.252C262.66 123.799 263.172 123.154 263.788 122.753C264.404 122.352 265.138 122.151 265.99 122.151C267.222 122.151 268.167 122.531 268.826 123.29C269.485 124.049 269.814 125.159 269.814 126.62V134H266.807V127.479C266.807 126.455 266.635 125.689 266.291 125.181C265.947 124.672 265.428 124.418 264.733 124.418C264.003 124.418 263.412 124.733 262.961 125.363C262.517 125.986 262.295 126.788 262.295 127.77ZM275.411 134.215C274.287 134.215 273.41 133.91 272.779 133.302C272.149 132.686 271.834 131.823 271.834 130.713C271.834 129.51 272.224 128.597 273.005 127.974C273.793 127.351 274.931 127.025 276.421 126.996L278.924 126.953V126.362C278.924 125.603 278.791 125.041 278.526 124.676C278.261 124.303 277.828 124.117 277.227 124.117C276.668 124.117 276.256 124.246 275.991 124.504C275.733 124.755 275.572 125.174 275.508 125.761L272.36 125.61C272.754 123.312 274.419 122.162 277.355 122.162C278.824 122.162 279.955 122.524 280.75 123.247C281.545 123.97 281.942 124.998 281.942 126.33V130.562C281.942 131.214 282.014 131.665 282.157 131.916C282.308 132.16 282.555 132.281 282.898 132.281C283.128 132.281 283.35 132.26 283.564 132.217V133.85C283.192 133.943 282.873 134.011 282.608 134.054C282.343 134.104 282.018 134.129 281.631 134.129C280.872 134.129 280.31 133.943 279.944 133.57C279.586 133.198 279.371 132.65 279.3 131.927H279.235C278.813 132.686 278.283 133.259 277.646 133.646C277.008 134.025 276.263 134.215 275.411 134.215ZM278.924 128.618L277.377 128.64C276.668 128.675 276.17 128.751 275.884 128.865C275.59 128.994 275.365 129.188 275.207 129.445C275.057 129.703 274.981 130.047 274.981 130.477C274.981 131.028 275.107 131.44 275.357 131.712C275.615 131.977 275.955 132.109 276.378 132.109C276.851 132.109 277.284 131.98 277.678 131.723C278.064 131.465 278.369 131.11 278.591 130.659C278.813 130.201 278.924 129.717 278.924 129.209V128.618ZM293.802 130.133L292.459 134H289.29L294.812 118.864H298.55L304.05 134H300.913L299.57 130.133H293.802ZM296.681 121.195C296.609 121.482 296.509 121.826 296.38 122.227C296.251 122.628 296.158 122.91 296.101 123.075L294.511 127.748H298.861L297.229 122.979C297.128 122.685 297.035 122.388 296.949 122.087C296.863 121.786 296.774 121.489 296.681 121.195ZM311.021 134.215C309.26 134.215 307.899 133.692 306.939 132.646C305.98 131.594 305.5 130.129 305.5 128.253C305.5 126.334 305.983 124.84 306.95 123.773C307.917 122.699 309.288 122.162 311.064 122.162C312.432 122.162 313.564 122.506 314.459 123.193C315.354 123.881 315.916 124.83 316.146 126.04L313.105 126.19C313.02 125.596 312.805 125.123 312.461 124.772C312.117 124.414 311.63 124.235 311 124.235C310.219 124.235 309.636 124.561 309.249 125.213C308.862 125.857 308.669 126.831 308.669 128.135C308.669 129.474 308.866 130.48 309.26 131.153C309.661 131.819 310.255 132.152 311.043 132.152C311.616 132.152 312.096 131.973 312.482 131.615C312.869 131.25 313.109 130.709 313.202 129.993L316.231 130.133C316.124 130.949 315.834 131.665 315.361 132.281C314.896 132.89 314.291 133.366 313.546 133.71C312.801 134.047 311.96 134.215 311.021 134.215ZM321.108 134.215C319.984 134.215 319.107 133.91 318.477 133.302C317.846 132.686 317.531 131.823 317.531 130.713C317.531 129.51 317.922 128.597 318.702 127.974C319.49 127.351 320.629 127.025 322.118 126.996L324.621 126.953V126.362C324.621 125.603 324.489 125.041 324.224 124.676C323.959 124.303 323.525 124.117 322.924 124.117C322.365 124.117 321.953 124.246 321.688 124.504C321.431 124.755 321.27 125.174 321.205 125.761L318.058 125.61C318.451 123.312 320.117 122.162 323.053 122.162C324.521 122.162 325.652 122.524 326.447 123.247C327.242 123.97 327.64 124.998 327.64 126.33V130.562C327.64 131.214 327.711 131.665 327.854 131.916C328.005 132.16 328.252 132.281 328.596 132.281C328.825 132.281 329.047 132.26 329.262 132.217V133.85C328.889 133.943 328.571 134.011 328.306 134.054C328.041 134.104 327.715 134.129 327.328 134.129C326.569 134.129 326.007 133.943 325.642 133.57C325.284 133.198 325.069 132.65 324.997 131.927H324.933C324.51 132.686 323.98 133.259 323.343 133.646C322.705 134.025 321.961 134.215 321.108 134.215ZM324.621 128.618L323.074 128.64C322.365 128.675 321.868 128.751 321.581 128.865C321.287 128.994 321.062 129.188 320.904 129.445C320.754 129.703 320.679 130.047 320.679 130.477C320.679 131.028 320.804 131.44 321.055 131.712C321.312 131.977 321.653 132.109 322.075 132.109C322.548 132.109 322.981 131.98 323.375 131.723C323.762 131.465 324.066 131.11 324.288 130.659C324.51 130.201 324.621 129.717 324.621 129.209V128.618ZM338.199 134C338.185 133.928 338.163 133.778 338.135 133.549C338.106 133.32 338.081 133.069 338.06 132.797C338.045 132.525 338.038 132.296 338.038 132.109H337.995C337.666 132.811 337.193 133.338 336.577 133.688C335.961 134.039 335.195 134.215 334.278 134.215C332.925 134.215 331.879 133.688 331.142 132.636C330.404 131.576 330.035 130.097 330.035 128.199C330.035 126.273 330.422 124.787 331.195 123.741C331.976 122.688 333.079 122.162 334.504 122.162C335.327 122.162 336.036 122.334 336.631 122.678C337.232 123.021 337.694 123.534 338.017 124.214H338.038L338.017 122.302V118.059H341.035V131.465C341.035 131.823 341.042 132.213 341.057 132.636C341.071 133.058 341.092 133.513 341.121 134H338.199ZM333.183 128.199C333.183 129.517 333.38 130.505 333.773 131.164C334.174 131.823 334.769 132.152 335.557 132.152C336.352 132.152 336.967 131.805 337.404 131.11C337.841 130.409 338.06 129.413 338.06 128.124C338.06 126.871 337.848 125.908 337.426 125.234C337.01 124.554 336.395 124.214 335.578 124.214C334.769 124.214 334.167 124.543 333.773 125.202C333.38 125.854 333.183 126.853 333.183 128.199ZM346.61 128.769C346.61 129.9 346.818 130.756 347.233 131.336C347.656 131.909 348.254 132.195 349.027 132.195C349.557 132.195 349.991 132.081 350.327 131.852C350.671 131.615 350.911 131.268 351.047 130.81L353.894 131.057C353.07 133.162 351.398 134.215 348.877 134.215C347.13 134.215 345.787 133.699 344.849 132.668C343.91 131.63 343.441 130.118 343.441 128.135C343.441 126.215 343.918 124.74 344.87 123.709C345.823 122.678 347.173 122.162 348.92 122.162C350.589 122.162 351.863 122.717 352.744 123.827C353.625 124.93 354.065 126.549 354.065 128.683V128.769H346.61ZM351.144 126.878C351.086 125.94 350.861 125.238 350.467 124.772C350.073 124.3 349.543 124.063 348.877 124.063C348.168 124.063 347.62 124.311 347.233 124.805C346.854 125.299 346.653 125.99 346.632 126.878H351.144ZM359.383 127.77V134H356.364V124.977C356.364 124.354 356.354 123.845 356.332 123.451C356.318 123.05 356.3 122.692 356.278 122.377H359.157C359.172 122.463 359.189 122.667 359.211 122.989C359.232 123.304 359.25 123.63 359.265 123.967C359.286 124.296 359.297 124.536 359.297 124.687H359.34C359.712 123.799 360.174 123.154 360.726 122.753C361.284 122.352 361.95 122.151 362.724 122.151C363.612 122.151 364.324 122.363 364.861 122.785C365.406 123.208 365.771 123.841 365.957 124.687H366.021C366.415 123.784 366.888 123.136 367.439 122.742C367.991 122.348 368.693 122.151 369.545 122.151C370.676 122.151 371.539 122.538 372.134 123.312C372.728 124.078 373.025 125.181 373.025 126.62V134H370.028V127.479C370.028 126.455 369.882 125.689 369.588 125.181C369.294 124.672 368.854 124.418 368.267 124.418C367.679 124.418 367.189 124.704 366.795 125.277C366.401 125.843 366.204 126.627 366.204 127.63V134H363.207V127.479C363.207 126.455 363.06 125.689 362.767 125.181C362.473 124.672 362.033 124.418 361.445 124.418C360.837 124.418 360.339 124.729 359.952 125.353C359.573 125.976 359.383 126.781 359.383 127.77ZM377.44 138.565C376.703 138.565 376.069 138.519 375.539 138.426V136.277C375.94 136.335 376.287 136.363 376.581 136.363C377.283 136.363 377.806 136.174 378.149 135.794C378.5 135.414 378.84 134.777 379.17 133.882L374.572 122.377H377.763L379.589 127.823C379.732 128.217 379.893 128.711 380.072 129.306C380.251 129.9 380.452 130.602 380.674 131.411C380.839 130.752 380.996 130.144 381.146 129.585C381.297 129.026 381.462 128.453 381.641 127.866L383.359 122.377H386.518L381.92 134.612C381.734 135.106 381.537 135.543 381.329 135.923C381.121 136.302 380.91 136.639 380.695 136.933C380.258 137.527 379.782 137.946 379.267 138.189C378.751 138.44 378.142 138.565 377.44 138.565Z" fill="url(#paint2_linear_575_940)"/>
<path d="M19.1016 164.93C20.6432 164.93 21.8021 164.167 22.5781 162.641L23.7969 163.25C23.3438 164.198 22.7057 164.919 21.8828 165.414C21.0651 165.909 20.1146 166.156 19.0312 166.156C17.9167 166.156 16.9583 165.924 16.1562 165.461C15.3542 164.997 14.737 164.339 14.3047 163.484C13.8776 162.625 13.6641 161.612 13.6641 160.445C13.6641 159.273 13.8776 158.268 14.3047 157.43C14.7318 156.591 15.3464 155.948 16.1484 155.5C16.9505 155.052 17.9089 154.828 19.0234 154.828C20.1953 154.828 21.1745 155.057 21.9609 155.516C22.7474 155.974 23.3255 156.654 23.6953 157.555L22.2812 158.023C22.026 157.383 21.6146 156.893 21.0469 156.555C20.4844 156.216 19.8151 156.047 19.0391 156.047C17.8203 156.047 16.8724 156.44 16.1953 157.227C15.5182 158.008 15.1797 159.081 15.1797 160.445C15.1797 161.341 15.3385 162.128 15.6562 162.805C15.9792 163.477 16.4323 164 17.0156 164.375C17.6042 164.745 18.2995 164.93 19.1016 164.93ZM32.6406 161.766C32.6406 163.245 32.3151 164.346 31.6641 165.07C31.013 165.794 30.0677 166.156 28.8281 166.156C27.5938 166.156 26.6615 165.781 26.0312 165.031C25.401 164.276 25.0859 163.188 25.0859 161.766C25.0859 160.307 25.401 159.214 26.0312 158.484C26.6667 157.755 27.6146 157.391 28.875 157.391C30.1667 157.391 31.1172 157.747 31.7266 158.461C32.3359 159.169 32.6406 160.271 32.6406 161.766ZM31.1641 161.766C31.1641 160.599 30.9896 159.753 30.6406 159.227C30.2969 158.695 29.7161 158.43 28.8984 158.43C28.0755 158.43 27.4792 158.701 27.1094 159.242C26.7448 159.779 26.5625 160.62 26.5625 161.766C26.5625 162.88 26.7422 163.719 27.1016 164.281C27.4661 164.839 28.0365 165.117 28.8125 165.117C29.6562 165.117 30.2578 164.846 30.6172 164.305C30.9818 163.763 31.1641 162.917 31.1641 161.766ZM35.8359 161.102V166H34.4297V159.352C34.4297 158.857 34.4245 158.461 34.4141 158.164C34.4089 157.862 34.3984 157.656 34.3828 157.547H35.7109C35.7214 157.646 35.7292 157.771 35.7344 157.922C35.7448 158.073 35.7526 158.24 35.7578 158.422C35.763 158.604 35.7682 158.794 35.7734 158.992H35.7969C36.1198 158.409 36.4922 157.997 36.9141 157.758C37.3411 157.513 37.8698 157.391 38.5 157.391C39.4271 157.391 40.1042 157.628 40.5312 158.102C40.9635 158.576 41.1797 159.331 41.1797 160.367V166H39.7656V160.641C39.7656 159.833 39.6354 159.271 39.375 158.953C39.1146 158.635 38.6641 158.477 38.0234 158.477C37.3464 158.477 36.8125 158.708 36.4219 159.172C36.0312 159.635 35.8359 160.279 35.8359 161.102ZM46.5547 165.938C46.0964 166.062 45.6224 166.125 45.1328 166.125C44.5703 166.125 44.1484 165.966 43.8672 165.648C43.5859 165.326 43.4453 164.846 43.4453 164.211V158.57H42.4688V157.547H43.5L43.9141 155.656H44.8516V157.547H46.4141V158.57H44.8516V163.906C44.8516 164.312 44.9167 164.599 45.0469 164.766C45.1823 164.927 45.4141 165.008 45.7422 165.008C45.9193 165.008 46.1901 164.971 46.5547 164.898V165.938ZM49.1562 154.406V155.75H47.75V154.406H49.1562ZM49.1562 157.547V166H47.75V157.547H49.1562ZM52.7578 161.102V166H51.3516V159.352C51.3516 158.857 51.3464 158.461 51.3359 158.164C51.3307 157.862 51.3203 157.656 51.3047 157.547H52.6328C52.6432 157.646 52.651 157.771 52.6562 157.922C52.6667 158.073 52.6745 158.24 52.6797 158.422C52.6849 158.604 52.6901 158.794 52.6953 158.992H52.7188C53.0417 158.409 53.4141 157.997 53.8359 157.758C54.263 157.513 54.7917 157.391 55.4219 157.391C56.349 157.391 57.026 157.628 57.4531 158.102C57.8854 158.576 58.1016 159.331 58.1016 160.367V166H56.6875V160.641C56.6875 159.833 56.5573 159.271 56.2969 158.953C56.0365 158.635 55.5859 158.477 54.9453 158.477C54.2682 158.477 53.7344 158.708 53.3438 159.172C52.9531 159.635 52.7578 160.279 52.7578 161.102ZM65.5703 164.555C65.2474 165.138 64.8724 165.552 64.4453 165.797C64.0234 166.036 63.4974 166.156 62.8672 166.156C61.9401 166.156 61.2604 165.927 60.8281 165.469C60.401 165.005 60.1875 164.242 60.1875 163.18V157.547H61.6016V162.906C61.6016 163.75 61.7318 164.323 61.9922 164.625C62.2578 164.922 62.7083 165.07 63.3438 165.07C64.0208 165.07 64.5547 164.839 64.9453 164.375C65.3359 163.911 65.5312 163.268 65.5312 162.445V157.547H66.9375V164.195C66.9375 164.685 66.9401 165.081 66.9453 165.383C66.9557 165.685 66.9688 165.891 66.9844 166H65.6562C65.651 165.974 65.6406 165.852 65.625 165.633C65.6146 165.414 65.6042 165.055 65.5938 164.555H65.5703ZM70.2109 162.07C70.2109 163.039 70.4115 163.786 70.8125 164.312C71.2135 164.839 71.7995 165.102 72.5703 165.102C73.1797 165.102 73.6667 164.979 74.0312 164.734C74.401 164.49 74.651 164.18 74.7812 163.805L76.0156 164.156C75.5104 165.49 74.362 166.156 72.5703 166.156C71.3203 166.156 70.3672 165.784 69.7109 165.039C69.0599 164.294 68.7344 163.188 68.7344 161.719C68.7344 160.323 69.0599 159.253 69.7109 158.508C70.3672 157.763 71.3021 157.391 72.5156 157.391C73.7604 157.391 74.6927 157.766 75.3125 158.516C75.9323 159.266 76.2422 160.388 76.2422 161.883V162.07H70.2109ZM74.7891 160.992C74.7109 160.102 74.4844 159.453 74.1094 159.047C73.7344 158.635 73.1953 158.43 72.4922 158.43C71.8099 158.43 71.2682 158.659 70.8672 159.117C70.4714 159.57 70.2578 160.195 70.2266 160.992H74.7891ZM82.9062 169.32C82.5312 169.32 82.2083 169.292 81.9375 169.234V168.18C82.1354 168.211 82.3542 168.227 82.5938 168.227C83.0312 168.227 83.4349 168.062 83.8047 167.734C84.1797 167.411 84.513 166.82 84.8047 165.961L81.4531 157.547H82.9531L84.7344 162.219C84.8646 162.552 85.0026 162.93 85.1484 163.352C85.2995 163.773 85.4167 164.146 85.5 164.469C85.6302 164.099 85.7604 163.732 85.8906 163.367C86.026 163.003 86.1562 162.638 86.2812 162.273L87.8984 157.547H89.3828L86.1328 166C85.9557 166.448 85.7865 166.839 85.625 167.172C85.4635 167.51 85.3073 167.789 85.1562 168.008C84.8542 168.451 84.5182 168.779 84.1484 168.992C83.7839 169.211 83.3698 169.32 82.9062 169.32ZM97.6406 161.766C97.6406 163.245 97.3151 164.346 96.6641 165.07C96.013 165.794 95.0677 166.156 93.8281 166.156C92.5938 166.156 91.6615 165.781 91.0312 165.031C90.401 164.276 90.0859 163.188 90.0859 161.766C90.0859 160.307 90.401 159.214 91.0312 158.484C91.6667 157.755 92.6146 157.391 93.875 157.391C95.1667 157.391 96.1172 157.747 96.7266 158.461C97.3359 159.169 97.6406 160.271 97.6406 161.766ZM96.1641 161.766C96.1641 160.599 95.9896 159.753 95.6406 159.227C95.2969 158.695 94.7161 158.43 93.8984 158.43C93.0755 158.43 92.4792 158.701 92.1094 159.242C91.7448 159.779 91.5625 160.62 91.5625 161.766C91.5625 162.88 91.7422 163.719 92.1016 164.281C92.4661 164.839 93.0365 165.117 93.8125 165.117C94.6562 165.117 95.2578 164.846 95.6172 164.305C95.9818 163.763 96.1641 162.917 96.1641 161.766ZM104.742 164.555C104.419 165.138 104.044 165.552 103.617 165.797C103.195 166.036 102.669 166.156 102.039 166.156C101.112 166.156 100.432 165.927 100 165.469C99.5729 165.005 99.3594 164.242 99.3594 163.18V157.547H100.773V162.906C100.773 163.75 100.904 164.323 101.164 164.625C101.43 164.922 101.88 165.07 102.516 165.07C103.193 165.07 103.727 164.839 104.117 164.375C104.508 163.911 104.703 163.268 104.703 162.445V157.547H106.109V164.195C106.109 164.685 106.112 165.081 106.117 165.383C106.128 165.685 106.141 165.891 106.156 166H104.828C104.823 165.974 104.812 165.852 104.797 165.633C104.786 165.414 104.776 165.055 104.766 164.555H104.742ZM109.742 161.594V166H108.336V159.516C108.336 159.219 108.331 158.906 108.32 158.578C108.315 158.25 108.305 157.906 108.289 157.547H109.617C109.628 157.786 109.635 158.003 109.641 158.195C109.651 158.388 109.659 158.557 109.664 158.703C109.669 158.844 109.672 158.964 109.672 159.062C109.677 159.156 109.68 159.227 109.68 159.273H109.711C109.867 158.763 110.039 158.367 110.227 158.086C110.409 157.826 110.617 157.646 110.852 157.547C111.086 157.443 111.375 157.391 111.719 157.391C111.911 157.391 112.102 157.417 112.289 157.469V158.758C112.112 158.706 111.862 158.68 111.539 158.68C110.956 158.68 110.51 158.932 110.203 159.438C109.896 159.938 109.742 160.656 109.742 161.594ZM119.977 154.992V166H118.484V154.992H119.977ZM128.883 163.664C128.883 164.461 128.581 165.076 127.977 165.508C127.378 165.94 126.536 166.156 125.453 166.156C124.401 166.156 123.589 165.984 123.016 165.641C122.448 165.292 122.078 164.75 121.906 164.016L123.148 163.773C123.268 164.227 123.516 164.56 123.891 164.773C124.266 164.982 124.786 165.086 125.453 165.086C126.167 165.086 126.688 164.977 127.016 164.758C127.349 164.539 127.516 164.211 127.516 163.773C127.516 163.44 127.401 163.169 127.172 162.961C126.943 162.753 126.573 162.581 126.062 162.445C125.458 162.284 124.977 162.151 124.617 162.047C124.263 161.943 123.99 161.854 123.797 161.781C123.604 161.703 123.451 161.63 123.336 161.562C122.992 161.365 122.724 161.122 122.531 160.836C122.339 160.549 122.242 160.198 122.242 159.781C122.242 159.01 122.516 158.424 123.062 158.023C123.615 157.617 124.417 157.414 125.469 157.414C126.401 157.414 127.141 157.578 127.688 157.906C128.24 158.234 128.589 158.76 128.734 159.484L127.469 159.641C127.391 159.266 127.18 158.979 126.836 158.781C126.497 158.578 126.042 158.477 125.469 158.477C124.833 158.477 124.365 158.573 124.062 158.766C123.76 158.958 123.609 159.25 123.609 159.641C123.609 159.927 123.695 160.164 123.867 160.352C124.039 160.534 124.367 160.685 124.852 160.805C125.503 160.961 126.122 161.133 126.711 161.32C127.299 161.503 127.721 161.685 127.977 161.867C128.273 162.081 128.497 162.333 128.648 162.625C128.805 162.911 128.883 163.258 128.883 163.664ZM131.945 154.406V166H130.539V154.406H131.945ZM136.258 166.156C135.409 166.156 134.771 165.932 134.344 165.484C133.917 165.036 133.703 164.422 133.703 163.641C133.703 162.766 133.99 162.094 134.562 161.625C135.141 161.156 136.07 160.906 137.352 160.875L139.25 160.844V160.383C139.25 159.695 139.104 159.203 138.812 158.906C138.521 158.609 138.062 158.461 137.438 158.461C136.807 158.461 136.349 158.568 136.062 158.781C135.776 158.995 135.604 159.336 135.547 159.805L134.078 159.672C134.318 158.151 135.448 157.391 137.469 157.391C138.531 157.391 139.331 157.635 139.867 158.125C140.404 158.609 140.672 159.312 140.672 160.234V163.875C140.672 164.292 140.727 164.607 140.836 164.82C140.945 165.029 141.154 165.133 141.461 165.133C141.607 165.133 141.76 165.115 141.922 165.078V165.953C141.745 165.995 141.565 166.026 141.383 166.047C141.201 166.068 141.018 166.078 140.836 166.078C140.315 166.078 139.935 165.943 139.695 165.672C139.461 165.396 139.328 164.966 139.297 164.383H139.25C138.891 165.029 138.471 165.487 137.992 165.758C137.518 166.023 136.94 166.156 136.258 166.156ZM139.25 161.828L137.711 161.859C137.055 161.865 136.555 161.932 136.211 162.062C135.867 162.188 135.604 162.38 135.422 162.641C135.24 162.901 135.148 163.242 135.148 163.664C135.148 164.122 135.271 164.477 135.516 164.727C135.766 164.977 136.12 165.102 136.578 165.102C137.099 165.102 137.557 164.984 137.953 164.75C138.354 164.516 138.669 164.195 138.898 163.789C139.133 163.378 139.25 162.956 139.25 162.523V161.828ZM144.438 161.102V166H143.039V159.352C143.039 158.857 143.034 158.461 143.023 158.164C143.018 157.862 143.008 157.656 142.992 157.547H144.32C144.331 157.661 144.341 157.802 144.352 157.969C144.362 158.135 144.37 158.31 144.375 158.492C144.38 158.669 144.383 158.836 144.383 158.992H144.406C144.708 158.393 145.055 157.977 145.445 157.742C145.836 157.508 146.312 157.391 146.875 157.391C147.516 157.391 148.021 157.518 148.391 157.773C148.766 158.029 149.026 158.435 149.172 158.992H149.195C149.487 158.424 149.839 158.016 150.25 157.766C150.667 157.516 151.169 157.391 151.758 157.391C152.612 157.391 153.232 157.622 153.617 158.086C154.008 158.549 154.203 159.31 154.203 160.367V166H152.812V160.641C152.812 159.823 152.701 159.258 152.477 158.945C152.253 158.633 151.849 158.477 151.266 158.477C150.651 158.477 150.172 158.706 149.828 159.164C149.49 159.617 149.32 160.263 149.32 161.102V166H147.93V160.641C147.93 159.823 147.818 159.258 147.594 158.945C147.37 158.633 146.966 158.477 146.383 158.477C145.784 158.477 145.31 158.706 144.961 159.164C144.612 159.622 144.438 160.268 144.438 161.102ZM157.734 154.406V155.75H156.328V154.406H157.734ZM157.734 157.547V166H156.328V157.547H157.734ZM163.141 166.156C161.958 166.156 161.055 165.784 160.43 165.039C159.81 164.289 159.5 163.198 159.5 161.766C159.5 160.344 159.812 159.26 160.438 158.516C161.062 157.766 161.958 157.391 163.125 157.391C163.99 157.391 164.706 157.615 165.273 158.062C165.846 158.51 166.206 159.128 166.352 159.914L164.906 160.023C164.833 159.555 164.648 159.182 164.352 158.906C164.055 158.63 163.633 158.492 163.086 158.492C162.341 158.492 161.802 158.74 161.469 159.234C161.135 159.729 160.969 160.562 160.969 161.734C160.969 162.859 161.146 163.693 161.5 164.234C161.854 164.776 162.388 165.047 163.102 165.047C163.602 165.047 164.018 164.911 164.352 164.641C164.69 164.37 164.898 163.953 164.977 163.391L166.398 163.484C166.326 164.026 166.143 164.497 165.852 164.898C165.565 165.299 165.19 165.609 164.727 165.828C164.268 166.047 163.74 166.156 163.141 166.156ZM173.758 154.406V166H172.352V154.406H173.758ZM176.992 162.07C176.992 163.039 177.193 163.786 177.594 164.312C177.995 164.839 178.581 165.102 179.352 165.102C179.961 165.102 180.448 164.979 180.812 164.734C181.182 164.49 181.432 164.18 181.562 163.805L182.797 164.156C182.292 165.49 181.143 166.156 179.352 166.156C178.102 166.156 177.148 165.784 176.492 165.039C175.841 164.294 175.516 163.188 175.516 161.719C175.516 160.323 175.841 159.253 176.492 158.508C177.148 157.763 178.083 157.391 179.297 157.391C180.542 157.391 181.474 157.766 182.094 158.516C182.714 159.266 183.023 160.388 183.023 161.883V162.07H176.992ZM181.57 160.992C181.492 160.102 181.266 159.453 180.891 159.047C180.516 158.635 179.977 158.43 179.273 158.43C178.591 158.43 178.049 158.659 177.648 159.117C177.253 159.57 177.039 160.195 177.008 160.992H181.57ZM186.977 166.156C186.128 166.156 185.49 165.932 185.062 165.484C184.635 165.036 184.422 164.422 184.422 163.641C184.422 162.766 184.708 162.094 185.281 161.625C185.859 161.156 186.789 160.906 188.07 160.875L189.969 160.844V160.383C189.969 159.695 189.823 159.203 189.531 158.906C189.24 158.609 188.781 158.461 188.156 158.461C187.526 158.461 187.068 158.568 186.781 158.781C186.495 158.995 186.323 159.336 186.266 159.805L184.797 159.672C185.036 158.151 186.167 157.391 188.188 157.391C189.25 157.391 190.049 157.635 190.586 158.125C191.122 158.609 191.391 159.312 191.391 160.234V163.875C191.391 164.292 191.445 164.607 191.555 164.82C191.664 165.029 191.872 165.133 192.18 165.133C192.326 165.133 192.479 165.115 192.641 165.078V165.953C192.464 165.995 192.284 166.026 192.102 166.047C191.919 166.068 191.737 166.078 191.555 166.078C191.034 166.078 190.654 165.943 190.414 165.672C190.18 165.396 190.047 164.966 190.016 164.383H189.969C189.609 165.029 189.19 165.487 188.711 165.758C188.237 166.023 187.659 166.156 186.977 166.156ZM189.969 161.828L188.43 161.859C187.773 161.865 187.273 161.932 186.93 162.062C186.586 162.188 186.323 162.38 186.141 162.641C185.958 162.901 185.867 163.242 185.867 163.664C185.867 164.122 185.99 164.477 186.234 164.727C186.484 164.977 186.839 165.102 187.297 165.102C187.818 165.102 188.276 164.984 188.672 164.75C189.073 164.516 189.388 164.195 189.617 163.789C189.852 163.378 189.969 162.956 189.969 162.523V161.828ZM195.164 161.594V166H193.758V159.516C193.758 159.219 193.753 158.906 193.742 158.578C193.737 158.25 193.727 157.906 193.711 157.547H195.039C195.049 157.786 195.057 158.003 195.062 158.195C195.073 158.388 195.081 158.557 195.086 158.703C195.091 158.844 195.094 158.964 195.094 159.062C195.099 159.156 195.102 159.227 195.102 159.273H195.133C195.289 158.763 195.461 158.367 195.648 158.086C195.831 157.826 196.039 157.646 196.273 157.547C196.508 157.443 196.797 157.391 197.141 157.391C197.333 157.391 197.523 157.417 197.711 157.469V158.758C197.534 158.706 197.284 158.68 196.961 158.68C196.378 158.68 195.932 158.932 195.625 159.438C195.318 159.938 195.164 160.656 195.164 161.594ZM200.492 161.102V166H199.086V159.352C199.086 158.857 199.081 158.461 199.07 158.164C199.065 157.862 199.055 157.656 199.039 157.547H200.367C200.378 157.646 200.385 157.771 200.391 157.922C200.401 158.073 200.409 158.24 200.414 158.422C200.419 158.604 200.424 158.794 200.43 158.992H200.453C200.776 158.409 201.148 157.997 201.57 157.758C201.997 157.513 202.526 157.391 203.156 157.391C204.083 157.391 204.76 157.628 205.188 158.102C205.62 158.576 205.836 159.331 205.836 160.367V166H204.422V160.641C204.422 159.833 204.292 159.271 204.031 158.953C203.771 158.635 203.32 158.477 202.68 158.477C202.003 158.477 201.469 158.708 201.078 159.172C200.688 159.635 200.492 160.279 200.492 161.102ZM209.359 154.406V155.75H207.953V154.406H209.359ZM209.359 157.547V166H207.953V157.547H209.359ZM212.961 161.102V166H211.555V159.352C211.555 158.857 211.549 158.461 211.539 158.164C211.534 157.862 211.523 157.656 211.508 157.547H212.836C212.846 157.646 212.854 157.771 212.859 157.922C212.87 158.073 212.878 158.24 212.883 158.422C212.888 158.604 212.893 158.794 212.898 158.992H212.922C213.245 158.409 213.617 157.997 214.039 157.758C214.466 157.513 214.995 157.391 215.625 157.391C216.552 157.391 217.229 157.628 217.656 158.102C218.089 158.576 218.305 159.331 218.305 160.367V166H216.891V160.641C216.891 159.833 216.76 159.271 216.5 158.953C216.24 158.635 215.789 158.477 215.148 158.477C214.471 158.477 213.938 158.708 213.547 159.172C213.156 159.635 212.961 160.279 212.961 161.102ZM223.633 169.32C222.711 169.32 221.977 169.138 221.43 168.773C220.883 168.414 220.531 167.901 220.375 167.234L221.789 167.031C221.883 167.422 222.089 167.721 222.406 167.93C222.729 168.143 223.151 168.25 223.672 168.25C224.37 168.25 224.893 168.044 225.242 167.633C225.596 167.221 225.773 166.607 225.773 165.789V164.43H225.758C225.492 164.971 225.128 165.38 224.664 165.656C224.201 165.927 223.659 166.062 223.039 166.062C222.003 166.062 221.24 165.719 220.75 165.031C220.266 164.344 220.023 163.263 220.023 161.789C220.023 160.294 220.284 159.193 220.805 158.484C221.331 157.771 222.128 157.414 223.195 157.414C223.794 157.414 224.312 157.552 224.75 157.828C225.193 158.099 225.534 158.487 225.773 158.992H225.789C225.789 158.888 225.794 158.727 225.805 158.508C225.815 158.284 225.828 158.073 225.844 157.875C225.859 157.677 225.872 157.568 225.883 157.547H227.219C227.188 157.828 227.172 158.411 227.172 159.297V165.758C227.172 166.945 226.878 167.836 226.289 168.43C225.701 169.023 224.815 169.32 223.633 169.32ZM225.773 161.773C225.773 160.747 225.562 159.94 225.141 159.352C224.724 158.758 224.19 158.461 223.539 158.461C222.82 158.461 222.297 158.721 221.969 159.242C221.641 159.763 221.477 160.607 221.477 161.773C221.477 162.93 221.63 163.76 221.938 164.266C222.245 164.771 222.771 165.023 223.516 165.023C224.182 165.023 224.724 164.734 225.141 164.156C225.562 163.573 225.773 162.779 225.773 161.773ZM235.188 154.406V155.75H233.781V154.406H235.188ZM233.312 169.32C232.906 169.32 232.576 169.297 232.32 169.25V168.164C232.404 168.174 232.484 168.185 232.562 168.195C232.641 168.206 232.721 168.211 232.805 168.211C233.164 168.211 233.417 168.117 233.562 167.93C233.708 167.742 233.781 167.378 233.781 166.836V157.547H235.188V167.047C235.188 167.844 235.031 168.422 234.719 168.781C234.406 169.141 233.938 169.32 233.312 169.32ZM244.5 161.766C244.5 163.245 244.174 164.346 243.523 165.07C242.872 165.794 241.927 166.156 240.688 166.156C239.453 166.156 238.521 165.781 237.891 165.031C237.26 164.276 236.945 163.188 236.945 161.766C236.945 160.307 237.26 159.214 237.891 158.484C238.526 157.755 239.474 157.391 240.734 157.391C242.026 157.391 242.977 157.747 243.586 158.461C244.195 159.169 244.5 160.271 244.5 161.766ZM243.023 161.766C243.023 160.599 242.849 159.753 242.5 159.227C242.156 158.695 241.576 158.43 240.758 158.43C239.935 158.43 239.339 158.701 238.969 159.242C238.604 159.779 238.422 160.62 238.422 161.766C238.422 162.88 238.602 163.719 238.961 164.281C239.326 164.839 239.896 165.117 240.672 165.117C241.516 165.117 242.117 164.846 242.477 164.305C242.841 163.763 243.023 162.917 243.023 161.766ZM251.602 164.555C251.279 165.138 250.904 165.552 250.477 165.797C250.055 166.036 249.529 166.156 248.898 166.156C247.971 166.156 247.292 165.927 246.859 165.469C246.432 165.005 246.219 164.242 246.219 163.18V157.547H247.633V162.906C247.633 163.75 247.763 164.323 248.023 164.625C248.289 164.922 248.74 165.07 249.375 165.07C250.052 165.07 250.586 164.839 250.977 164.375C251.367 163.911 251.562 163.268 251.562 162.445V157.547H252.969V164.195C252.969 164.685 252.971 165.081 252.977 165.383C252.987 165.685 253 165.891 253.016 166H251.688C251.682 165.974 251.672 165.852 251.656 165.633C251.646 165.414 251.635 165.055 251.625 164.555H251.602ZM256.602 161.594V166H255.195V159.516C255.195 159.219 255.19 158.906 255.18 158.578C255.174 158.25 255.164 157.906 255.148 157.547H256.477C256.487 157.786 256.495 158.003 256.5 158.195C256.51 158.388 256.518 158.557 256.523 158.703C256.529 158.844 256.531 158.964 256.531 159.062C256.536 159.156 256.539 159.227 256.539 159.273H256.57C256.727 158.763 256.898 158.367 257.086 158.086C257.268 157.826 257.477 157.646 257.711 157.547C257.945 157.443 258.234 157.391 258.578 157.391C258.771 157.391 258.961 157.417 259.148 157.469V158.758C258.971 158.706 258.721 158.68 258.398 158.68C257.815 158.68 257.37 158.932 257.062 159.438C256.755 159.938 256.602 160.656 256.602 161.594ZM261.93 161.102V166H260.523V159.352C260.523 158.857 260.518 158.461 260.508 158.164C260.503 157.862 260.492 157.656 260.477 157.547H261.805C261.815 157.646 261.823 157.771 261.828 157.922C261.839 158.073 261.846 158.24 261.852 158.422C261.857 158.604 261.862 158.794 261.867 158.992H261.891C262.214 158.409 262.586 157.997 263.008 157.758C263.435 157.513 263.964 157.391 264.594 157.391C265.521 157.391 266.198 157.628 266.625 158.102C267.057 158.576 267.273 159.331 267.273 160.367V166H265.859V160.641C265.859 159.833 265.729 159.271 265.469 158.953C265.208 158.635 264.758 158.477 264.117 158.477C263.44 158.477 262.906 158.708 262.516 159.172C262.125 159.635 261.93 160.279 261.93 161.102ZM270.477 162.07C270.477 163.039 270.677 163.786 271.078 164.312C271.479 164.839 272.065 165.102 272.836 165.102C273.445 165.102 273.932 164.979 274.297 164.734C274.667 164.49 274.917 164.18 275.047 163.805L276.281 164.156C275.776 165.49 274.628 166.156 272.836 166.156C271.586 166.156 270.633 165.784 269.977 165.039C269.326 164.294 269 163.188 269 161.719C269 160.323 269.326 159.253 269.977 158.508C270.633 157.763 271.568 157.391 272.781 157.391C274.026 157.391 274.958 157.766 275.578 158.516C276.198 159.266 276.508 160.388 276.508 161.883V162.07H270.477ZM275.055 160.992C274.977 160.102 274.75 159.453 274.375 159.047C274 158.635 273.461 158.43 272.758 158.43C272.076 158.43 271.534 158.659 271.133 159.117C270.737 159.57 270.523 160.195 270.492 160.992H275.055ZM278.719 169.32C278.344 169.32 278.021 169.292 277.75 169.234V168.18C277.948 168.211 278.167 168.227 278.406 168.227C278.844 168.227 279.247 168.062 279.617 167.734C279.992 167.411 280.326 166.82 280.617 165.961L277.266 157.547H278.766L280.547 162.219C280.677 162.552 280.815 162.93 280.961 163.352C281.112 163.773 281.229 164.146 281.312 164.469C281.443 164.099 281.573 163.732 281.703 163.367C281.839 163.003 281.969 162.638 282.094 162.273L283.711 157.547H285.195L281.945 166C281.768 166.448 281.599 166.839 281.438 167.172C281.276 167.51 281.12 167.789 280.969 168.008C280.667 168.451 280.331 168.779 279.961 168.992C279.596 169.211 279.182 169.32 278.719 169.32ZM295.18 160.023L293.648 166H292.023L289.656 157.547H291.047L292.5 163.398C292.542 163.565 292.591 163.776 292.648 164.031C292.706 164.286 292.76 164.555 292.812 164.836C292.87 164.591 292.927 164.346 292.984 164.102C293.047 163.857 293.109 163.615 293.172 163.375L294.711 157.547H296.219L297.695 163.352C297.758 163.596 297.818 163.844 297.875 164.094C297.938 164.344 297.997 164.591 298.055 164.836C298.112 164.586 298.169 164.326 298.227 164.055C298.289 163.779 298.346 163.536 298.398 163.328L299.898 157.547H301.273L298.852 166H297.219L295.742 160.023C295.69 159.805 295.641 159.586 295.594 159.367C295.552 159.143 295.508 158.922 295.461 158.703C295.44 158.818 295.401 159.013 295.344 159.289C295.292 159.56 295.237 159.805 295.18 160.023ZM303.719 154.406V155.75H302.312V154.406H303.719ZM303.719 157.547V166H302.312V157.547H303.719ZM309.133 165.938C308.674 166.062 308.201 166.125 307.711 166.125C307.148 166.125 306.727 165.966 306.445 165.648C306.164 165.326 306.023 164.846 306.023 164.211V158.57H305.047V157.547H306.078L306.492 155.656H307.43V157.547H308.992V158.57H307.43V163.906C307.43 164.312 307.495 164.599 307.625 164.766C307.76 164.927 307.992 165.008 308.32 165.008C308.497 165.008 308.768 164.971 309.133 164.898V165.938ZM311.734 158.992C312.036 158.44 312.398 158.036 312.82 157.781C313.247 157.521 313.786 157.391 314.438 157.391C315.354 157.391 316.029 157.63 316.461 158.109C316.898 158.583 317.117 159.336 317.117 160.367V166H315.703V160.641C315.703 159.875 315.568 159.323 315.297 158.984C315.031 158.646 314.586 158.477 313.961 158.477C313.299 158.477 312.768 158.706 312.367 159.164C311.971 159.622 311.773 160.24 311.773 161.016V166H310.367V154.406H311.773V157.422C311.773 157.63 311.768 157.852 311.758 158.086C311.747 158.315 311.737 158.516 311.727 158.688C311.721 158.854 311.716 158.956 311.711 158.992H311.734ZM329.039 164.555C328.716 165.138 328.341 165.552 327.914 165.797C327.492 166.036 326.966 166.156 326.336 166.156C325.409 166.156 324.729 165.927 324.297 165.469C323.87 165.005 323.656 164.242 323.656 163.18V157.547H325.07V162.906C325.07 163.75 325.201 164.323 325.461 164.625C325.727 164.922 326.177 165.07 326.812 165.07C327.49 165.07 328.023 164.839 328.414 164.375C328.805 163.911 329 163.268 329 162.445V157.547H330.406V164.195C330.406 164.685 330.409 165.081 330.414 165.383C330.424 165.685 330.438 165.891 330.453 166H329.125C329.12 165.974 329.109 165.852 329.094 165.633C329.083 165.414 329.073 165.055 329.062 164.555H329.039ZM338.945 163.664C338.945 164.461 338.643 165.076 338.039 165.508C337.44 165.94 336.599 166.156 335.516 166.156C334.464 166.156 333.651 165.984 333.078 165.641C332.51 165.292 332.141 164.75 331.969 164.016L333.211 163.773C333.331 164.227 333.578 164.56 333.953 164.773C334.328 164.982 334.849 165.086 335.516 165.086C336.229 165.086 336.75 164.977 337.078 164.758C337.411 164.539 337.578 164.211 337.578 163.773C337.578 163.44 337.464 163.169 337.234 162.961C337.005 162.753 336.635 162.581 336.125 162.445C335.521 162.284 335.039 162.151 334.68 162.047C334.326 161.943 334.052 161.854 333.859 161.781C333.667 161.703 333.513 161.63 333.398 161.562C333.055 161.365 332.786 161.122 332.594 160.836C332.401 160.549 332.305 160.198 332.305 159.781C332.305 159.01 332.578 158.424 333.125 158.023C333.677 157.617 334.479 157.414 335.531 157.414C336.464 157.414 337.203 157.578 337.75 157.906C338.302 158.234 338.651 158.76 338.797 159.484L337.531 159.641C337.453 159.266 337.242 158.979 336.898 158.781C336.56 158.578 336.104 158.477 335.531 158.477C334.896 158.477 334.427 158.573 334.125 158.766C333.823 158.958 333.672 159.25 333.672 159.641C333.672 159.927 333.758 160.164 333.93 160.352C334.102 160.534 334.43 160.685 334.914 160.805C335.565 160.961 336.185 161.133 336.773 161.32C337.362 161.503 337.784 161.685 338.039 161.867C338.336 162.081 338.56 162.333 338.711 162.625C338.867 162.911 338.945 163.258 338.945 163.664ZM348.305 165.938C347.846 166.062 347.372 166.125 346.883 166.125C346.32 166.125 345.898 165.966 345.617 165.648C345.336 165.326 345.195 164.846 345.195 164.211V158.57H344.219V157.547H345.25L345.664 155.656H346.602V157.547H348.164V158.57H346.602V163.906C346.602 164.312 346.667 164.599 346.797 164.766C346.932 164.927 347.164 165.008 347.492 165.008C347.669 165.008 347.94 164.971 348.305 164.898V165.938ZM356.656 161.766C356.656 163.245 356.331 164.346 355.68 165.07C355.029 165.794 354.083 166.156 352.844 166.156C351.609 166.156 350.677 165.781 350.047 165.031C349.417 164.276 349.102 163.188 349.102 161.766C349.102 160.307 349.417 159.214 350.047 158.484C350.682 157.755 351.63 157.391 352.891 157.391C354.182 157.391 355.133 157.747 355.742 158.461C356.352 159.169 356.656 160.271 356.656 161.766ZM355.18 161.766C355.18 160.599 355.005 159.753 354.656 159.227C354.312 158.695 353.732 158.43 352.914 158.43C352.091 158.43 351.495 158.701 351.125 159.242C350.76 159.779 350.578 160.62 350.578 161.766C350.578 162.88 350.758 163.719 351.117 164.281C351.482 164.839 352.052 165.117 352.828 165.117C353.672 165.117 354.273 164.846 354.633 164.305C354.997 163.763 355.18 162.917 355.18 161.766ZM363.859 166C363.849 165.943 363.836 165.836 363.82 165.68C363.81 165.518 363.799 165.341 363.789 165.148C363.784 164.956 363.781 164.786 363.781 164.641H363.75C363.49 165.182 363.143 165.57 362.711 165.805C362.284 166.039 361.753 166.156 361.117 166.156C360.049 166.156 359.263 165.797 358.758 165.078C358.258 164.359 358.008 163.271 358.008 161.812C358.008 160.339 358.266 159.234 358.781 158.5C359.302 157.76 360.081 157.391 361.117 157.391C361.758 157.391 362.292 157.508 362.719 157.742C363.146 157.977 363.49 158.349 363.75 158.859H363.766L363.75 157.914V154.406H365.156V164.258C365.156 164.701 365.159 165.068 365.164 165.359C365.174 165.646 365.188 165.859 365.203 166H363.859ZM359.484 161.766C359.484 162.948 359.641 163.794 359.953 164.305C360.266 164.815 360.773 165.07 361.477 165.07C362.273 165.07 362.852 164.794 363.211 164.242C363.57 163.69 363.75 162.833 363.75 161.672C363.75 160.552 363.57 159.732 363.211 159.211C362.852 158.69 362.279 158.43 361.492 158.43C360.784 158.43 360.271 158.693 359.953 159.219C359.641 159.74 359.484 160.589 359.484 161.766ZM369.477 166.156C368.628 166.156 367.99 165.932 367.562 165.484C367.135 165.036 366.922 164.422 366.922 163.641C366.922 162.766 367.208 162.094 367.781 161.625C368.359 161.156 369.289 160.906 370.57 160.875L372.469 160.844V160.383C372.469 159.695 372.323 159.203 372.031 158.906C371.74 158.609 371.281 158.461 370.656 158.461C370.026 158.461 369.568 158.568 369.281 158.781C368.995 158.995 368.823 159.336 368.766 159.805L367.297 159.672C367.536 158.151 368.667 157.391 370.688 157.391C371.75 157.391 372.549 157.635 373.086 158.125C373.622 158.609 373.891 159.312 373.891 160.234V163.875C373.891 164.292 373.945 164.607 374.055 164.82C374.164 165.029 374.372 165.133 374.68 165.133C374.826 165.133 374.979 165.115 375.141 165.078V165.953C374.964 165.995 374.784 166.026 374.602 166.047C374.419 166.068 374.237 166.078 374.055 166.078C373.534 166.078 373.154 165.943 372.914 165.672C372.68 165.396 372.547 164.966 372.516 164.383H372.469C372.109 165.029 371.69 165.487 371.211 165.758C370.737 166.023 370.159 166.156 369.477 166.156ZM372.469 161.828L370.93 161.859C370.273 161.865 369.773 161.932 369.43 162.062C369.086 162.188 368.823 162.38 368.641 162.641C368.458 162.901 368.367 163.242 368.367 163.664C368.367 164.122 368.49 164.477 368.734 164.727C368.984 164.977 369.339 165.102 369.797 165.102C370.318 165.102 370.776 164.984 371.172 164.75C371.573 164.516 371.888 164.195 372.117 163.789C372.352 163.378 372.469 162.956 372.469 162.523V161.828ZM376.641 169.32C376.266 169.32 375.943 169.292 375.672 169.234V168.18C375.87 168.211 376.089 168.227 376.328 168.227C376.766 168.227 377.169 168.062 377.539 167.734C377.914 167.411 378.247 166.82 378.539 165.961L375.188 157.547H376.688L378.469 162.219C378.599 162.552 378.737 162.93 378.883 163.352C379.034 163.773 379.151 164.146 379.234 164.469C379.365 164.099 379.495 163.732 379.625 163.367C379.76 163.003 379.891 162.638 380.016 162.273L381.633 157.547H383.117L379.867 166C379.69 166.448 379.521 166.839 379.359 167.172C379.198 167.51 379.042 167.789 378.891 168.008C378.589 168.451 378.253 168.779 377.883 168.992C377.518 169.211 377.104 169.32 376.641 169.32Z" fill="url(#paint3_linear_575_940)"/>
<path d="M73.0218 37.4587C77.6737 49.8618 76.8336 61.646 71.1454 63.7794C65.4572 65.9128 57.0749 57.5876 52.423 45.1844C47.7711 32.7813 48.6112 20.9971 54.2994 18.8637C59.9876 16.7303 68.37 25.0555 73.0218 37.4587ZM53.3757 44.8271C57.5973 56.0829 65.2042 63.638 70.3662 61.7019C75.5283 59.7659 76.2907 49.0718 72.0691 37.816C67.8475 26.5602 60.2406 19.0051 55.0786 20.9411C49.9166 22.8772 49.1542 33.5713 53.3757 44.8271Z" fill="url(#paint4_linear_575_940)"/>
</g>
<path d="M0 0V-1H-1V0H0ZM402 0H403V-1H402V0ZM402 225V226H403V225H402ZM0 225H-1V226H0V225ZM0 0V1H402V0V-1H0V0ZM402 0H401V225H402H403V0H402ZM402 225V224H0V225V226H402V225ZM0 225H1V0H0H-1V225H0Z" fill="url(#paint5_linear_575_940)" mask="url(#path-1-inside-1_575_940)"/>
<defs>
<linearGradient id="paint0_linear_575_940" x1="0" y1="112.5" x2="402" y2="112.5" gradientUnits="userSpaceOnUse">
<stop stop-color="#7AA4A5"/>
<stop offset="1" stop-color="white"/>
</linearGradient>
<linearGradient id="paint1_linear_575_940" x1="44" y1="86" x2="352" y2="86" gradientUnits="userSpaceOnUse">
<stop stop-color="#373737"/>
<stop offset="0.475962" stop-color="#019689"/>
<stop offset="1" stop-color="#013531"/>
</linearGradient>
<linearGradient id="paint2_linear_575_940" x1="8.5" y1="126" x2="387.5" y2="126" gradientUnits="userSpaceOnUse">
<stop stop-color="#373737"/>
<stop offset="0.471154" stop-color="#3D817B"/>
<stop offset="1" stop-color="#00302C"/>
</linearGradient>
<linearGradient id="paint3_linear_575_940" x1="12.5" y1="160" x2="383.5" y2="160" gradientUnits="userSpaceOnUse">
<stop stop-color="#373737"/>
<stop offset="0.493441" stop-color="#019689"/>
<stop offset="1" stop-color="#013530"/>
</linearGradient>
<linearGradient id="paint4_linear_575_940" x1="54.2994" y1="18.8637" x2="71.1454" y2="63.7794" gradientUnits="userSpaceOnUse">
<stop stop-color="white"/>
<stop offset="1" stop-color="#009689"/>
</linearGradient>
<linearGradient id="paint5_linear_575_940" x1="0" y1="112.5" x2="402" y2="112.5" gradientUnits="userSpaceOnUse">
<stop stop-color="#009689"/>
<stop offset="1" stop-color="#7AA4A5"/>
</linearGradient>
<clipPath id="clip0_575_940">
<path d="M0 0H402V225H0V0Z" fill="white"/>
</clipPath>
</defs>
</svg>
